# xmcd
#
# Track frame offsets:
#	150
#	19020
#	35662
#	49022
#	66525
#	93260
#	106425
#	117465
#	134032
#	152305
#	168780
#
# Disc length: 2489 seconds
#
# Revision: 1
# Processed by: cddbd v1.5.2PL0 Copyright (c) Steve Scherf et al.
# Submitted via: audiograbber 1.83.01
#
DISCID=9109b70b
DTITLE=The Old Haunts - Fuel On Fire
DYEAR=1900
DGENRE=
TTITLE0=Civil Savage
TTITLE1=Death on the Sickbed
TTITLE2=Culture of Prey
TTITLE3=Paradise
TTITLE4=Wasted Day
TTITLE5=Into A New Room
TTITLE6=Filled In
TTITLE7=Fuel On Fire
TTITLE8=Unveil a Key
TTITLE9=Salvage Purity
TTITLE10=Scarlet Hall
EXTD=
EXTT0=
EXTT1=
EXTT2=
EXTT3=
EXTT4=
EXTT5=
EXTT6=
EXTT7=
EXTT8=
EXTT9=
EXTT10=
PLAYORDER=
